<svg width="100%" viewBox="0 0 100 100" role="img" xmlns="http://www.w3.org/2000/svg">
  <title>Phreezer snowflake icon</title>
  <g transform="translate(50,50)" stroke="#FF8A00" stroke-width="3.5" stroke-linecap="round">
    <line x1="0" y1="-38" x2="0" y2="38"/>
    <line x1="32.9" y1="-19" x2="-32.9" y2="19"/>
    <line x1="32.9" y1="19" x2="-32.9" y2="-19"/>
    <line x1="0" y1="-38" x2="-11" y2="-24"/>
    <line x1="0" y1="-38" x2="11" y2="-24"/>
    <line x1="0" y1="38" x2="-11" y2="24"/>
    <line x1="0" y1="38" x2="11" y2="24"/>
    <line x1="32.9" y1="-19" x2="21" y2="-7"/>
    <line x1="32.9" y1="-19" x2="26" y2="-32"/>
    <line x1="-32.9" y1="19" x2="-21" y2="7"/>
    <line x1="-32.9" y1="19" x2="-26" y2="32"/>
    <line x1="32.9" y1="19" x2="21" y2="7"/>
    <line x1="32.9" y1="19" x2="26" y2="32"/>
    <line x1="-32.9" y1="-19" x2="-21" y2="-7"/>
    <line x1="-32.9" y1="-19" x2="-26" y2="-32"/>
    <circle cx="0" cy="0" r="5" fill="#FF8A00" stroke="none"/>
  </g>
</svg>
