<svg width="100%" viewBox="0 0 480 90" role="img" xmlns="http://www.w3.org/2000/svg">
  <title>The Phreezer</title>
  <desc>The Phreezer wordmark with snowflake icon</desc>
  <g transform="translate(8, 8)">
    <g transform="translate(34, 40)" stroke="#00E0D0" stroke-width="2.5" stroke-linecap="round" fill="none">
      <line x1="0" y1="-32" x2="0" y2="32"/>
      <line x1="27.7" y1="-16" x2="-27.7" y2="16"/>
      <line x1="27.7" y1="16" x2="-27.7" y2="-16"/>
      <line x1="0" y1="-32" x2="-9" y2="-20"/>
      <line x1="0" y1="-32" x2="9" y2="-20"/>
      <line x1="0" y1="32" x2="-9" y2="20"/>
      <line x1="0" y1="32" x2="9" y2="20"/>
      <line x1="17.3" y1="-10" x2="23" y2="-22"/>
      <line x1="17.3" y1="-10" x2="27" y2="-4"/>
      <line x1="-17.3" y1="10" x2="-23" y2="22"/>
      <line x1="-17.3" y1="10" x2="-27" y2="4"/>
      <line x1="17.3" y1="10" x2="23" y2="22"/>
      <line x1="17.3" y1="10" x2="27" y2="4"/>
      <line x1="-17.3" y1="-10" x2="-23" y2="-22"/>
      <line x1="-17.3" y1="-10" x2="-27" y2="-4"/>
      <circle cx="0" cy="0" r="4" fill="#00E0D0" stroke="none"/>
    </g>
    <text x="76" y="20" font-family="'Orbitron','Courier New',monospace" font-size="13" font-weight="700" fill="#00E0D0" letter-spacing="6">THE</text>
    <text x="74" y="62" font-family="'Orbitron','Courier New',monospace" font-size="42" font-weight="700" fill="#00E0D0" letter-spacing="3">PHREEZER</text>
  </g>
</svg>
